<svg
  xmlns="http://www.w3.org/2000/svg"
  class="icon icon-cart-empty"
  aria-hidden="true"
  focusable="false"
  height="24"
  viewBox="0 -900 960 960"
  width="24"
>
  <path fill-rule="evenodd" d="M212.309-100.001q-29.923 0-51.115-21.193-21.193-21.192-21.193-51.115v-455.382q0-29.923 21.193-51.115 21.192-21.193 51.115-21.193h87.692q0-74.922 52.538-127.46Q405.078-879.997 480-879.997t127.461 52.538q52.538 52.538 52.538 127.46h87.692q29.923 0 51.115 21.193 21.193 21.192 21.193 51.115v455.382q0 29.923-21.193 51.115-21.192 21.193-51.115 21.193H212.309Zm0-59.999h535.382q4.616 0 8.463-3.846 3.846-3.847 3.846-8.463v-455.382q0-4.616-3.846-8.463-3.847-3.846-8.463-3.846H212.309q-4.616 0-8.463 3.846-3.846 3.847-3.846 8.463v455.382q0 4.616 3.846 8.463 3.847 3.846 8.463 3.846ZM480-420.001q74.922 0 127.461-52.538Q659.999-525.078 659.999-600H600q0 50-35 85t-85 35q-50 0-85-35t-35-85h-59.999q0 74.922 52.538 127.461Q405.078-420.001 480-420.001ZM360-699.999h240q0-50-35-85t-85-35q-50 0-85 35t-35 85ZM200-160V-640-160Z"/>
</svg>